<?xml version="1.0" encoding="utf-8"?>
<!-- Generator: Adobe Illustrator 27.9.0, SVG Export Plug-In . SVG Version: 6.00 Build 0)  -->
<svg version="1.1" id="Calque_1" xmlns="http://www.w3.org/2000/svg" xmlns:xlink="http://www.w3.org/1999/xlink" x="0px" y="0px"
	 viewBox="0 0 1600 1600" style="enable-background:new 0 0 1600 1600;" xml:space="preserve">
<ellipse cx="822.7" cy="1423.1" rx="304.4" ry="78.9"/>
<path d="M822.7,97.1c-13.8-0.4-415.3-7.9-415.3,363c0,368.1,395.4,759.6,414.9,778.7v0.7c0,0,0.1-0.1,0.4-0.4
	c0.2,0.2,0.4,0.4,0.4,0.4v-0.7c19.5-19.1,414.9-410.6,414.9-778.7C1238.1,89.2,836.6,96.7,822.7,97.1z M822.6,735.1
	c-131.3,0-237.8-106.4-237.8-237.8s106.4-237.8,237.8-237.8c131.3,0,237.8,106.4,237.8,237.8S953.9,735.1,822.6,735.1z"/>
</svg>
